<?xml version="1.0" standalone="no"?><!DOCTYPE svg PUBLIC "-//W3C//DTD SVG 1.1//EN" "http://www.w3.org/Graphics/SVG/1.1/DTD/svg11.dtd"><svg t="1691639854231" class="icon" viewBox="0 0 1024 1024" version="1.1" xmlns="http://www.w3.org/2000/svg" p-id="2797" xmlns:xlink="http://www.w3.org/1999/xlink" width="20" height="20"><path d="M514.54 512.15m-447.5 0a447.5 447.5 0 1 0 895 0 447.5 447.5 0 1 0-895 0Z" fill="#48A3FF" p-id="2798"></path><path d="M720.01 523.7L514.54 638.16 309.07 523.7l0.95-1.72 204.52-342.64 204.32 342.45z" fill="#FFFFFF" p-id="2799"></path><path d="M719.82 561.66l-0.96 1.34-204.32 281.97-204.52-282.16-0.76-1.15 0.76 0.57 204.52 121.53 204.32-121.53z" fill="#FFFFFF" p-id="2800"></path><path d="M720.01 523.7L514.54 638.16 309.07 523.7l0.95-1.72 204.52-92.72 204.32 92.53z" fill="#FFFFFF" p-id="2801"></path><path d="M720.01 523.7L514.54 638.16V179.34l204.32 342.45z" fill="#FFFFFF" opacity=".8" p-id="2802"></path><path d="M719.82 561.66l-0.96 1.34-204.32 281.97V683.76l204.32-121.53z" fill="#FFFFFF" p-id="2803"></path></svg>