<?xml version="1.0" standalone="no"?><!DOCTYPE svg PUBLIC "-//W3C//DTD SVG 1.1//EN" "http://www.w3.org/Graphics/SVG/1.1/DTD/svg11.dtd"><svg t="1687858059683" class="icon" viewBox="0 0 1024 1024" version="1.1" xmlns="http://www.w3.org/2000/svg" p-id="3160" xmlns:xlink="http://www.w3.org/1999/xlink" width="200" height="200"><path d="M736.032 834.368C736.032 849.728 721.824 862.176 704.032 862.176 686.368 862.176 672.032 849.568 672.032 834.368L672.032 358.656C672.032 343.264 686.24 330.816 704.032 330.816 721.696 330.816 736.032 343.424 736.032 358.656L736.032 834.368ZM544.032 834.368C544.032 849.728 529.824 862.176 512.032 862.176 494.368 862.176 480.032 849.568 480.032 834.368L480.032 358.656C480.032 343.264 494.24 330.816 512.032 330.816 529.696 330.816 544.032 343.424 544.032 358.656L544.032 834.368ZM352.032 834.368C352.032 849.728 337.824 862.176 320.032 862.176 302.368 862.176 288.032 849.568 288.032 834.368L288.032 358.656C288.032 343.264 302.24 330.816 320.032 330.816 337.696 330.816 352.032 343.424 352.032 358.656L352.032 834.368ZM880.256 158.176 672 158.176 655.52 92.32C646.944 57.952 611.36 30.176 576.064 30.176L447.936 30.176C412.352 30.176 377.024 58.016 368.448 92.32L352 158.176 143.712 158.176C117.408 158.176 96 179.68 96 206.176 96 232.896 117.344 254.176 143.712 254.176L192.032 254.176 192.032 926.08C192.032 961.728 220.512 990.176 255.712 990.176L768.288 990.176C803.232 990.176 832.032 961.472 832.032 926.08L832.032 254.176 880.256 254.176C906.592 254.176 928 232.704 928 206.176 928 179.488 906.624 158.176 880.256 158.176" p-id="3161" fill="#8A8080"></path></svg>